<svg width="360" height="800" viewBox="0 0 360 800" fill="none" xmlns="http://www.w3.org/2000/svg">
<g clip-path="url(#clip0_1_3)">
<rect width="360" height="800" fill="#5F5F5F"/>
<g filter="url(#filter0_f_1_3)">
<circle cx="214.5" cy="20.5" r="77.5" fill="#D9D9D9"/>
</g>
<g filter="url(#filter1_f_1_3)">
<circle cx="167.5" cy="32.5" r="15.5" fill="#969696"/>
</g>
<g filter="url(#filter2_f_1_3)">
<circle cx="198.5" cy="-3.5" r="15.5" fill="#969696"/>
</g>
<g filter="url(#filter3_f_1_3)">
<circle cx="188.5" cy="73.5" r="15.5" fill="#969696"/>
</g>
<g filter="url(#filter4_f_1_3)">
<circle cx="219.5" cy="47.5" r="15.5" fill="#969696"/>
</g>
<g filter="url(#filter5_f_1_3)">
<circle cx="256.5" cy="5.5" r="15.5" fill="#969696"/>
</g>
<rect x="38" y="50" width="75" height="750" fill="#3E3E3E"/>
<g style="mix-blend-mode:hard-light">
<rect x="43" y="65" width="17" height="35" fill="#F5D04C"/>
<rect x="91" y="65" width="17" height="35" fill="#F5D04C"/>
<rect x="43" y="123" width="17" height="35" fill="#F5D04C"/>
<rect x="91" y="123" width="17" height="35" fill="#F5D04C"/>
<rect x="43" y="181" width="17" height="35" fill="#F5D04C"/>
<rect x="91" y="181" width="17" height="35" fill="#F5D04C"/>
<rect x="43" y="239" width="17" height="35" fill="#F5D04C"/>
<rect x="91" y="239" width="17" height="35" fill="#F5D04C"/>
<rect x="43" y="297" width="17" height="35" fill="#F5D04C"/>
<rect x="91" y="297" width="17" height="35" fill="#F5D04C"/>
</g>
<rect x="221" y="50" width="139" height="750" fill="#2B2B2B"/>
<g style="mix-blend-mode:hard-light">
<rect x="245" y="65" width="17" height="35" fill="#F5D04C"/>
<rect x="293" y="65" width="17" height="35" fill="#F5D04C"/>
<rect x="245" y="123" width="17" height="35" fill="#F5D04C"/>
<rect x="293" y="123" width="17" height="35" fill="#F5D04C"/>
<rect x="245" y="181" width="17" height="35" fill="#F5D04C"/>
<rect x="293" y="181" width="17" height="35" fill="#F5D04C"/>
<rect x="245" y="239" width="17" height="35" fill="#F5D04C"/>
<rect x="293" y="239" width="17" height="35" fill="#F5D04C"/>
<rect x="245" y="297" width="17" height="35" fill="#F5D04C"/>
<rect x="293" y="297" width="17" height="35" fill="#F5D04C"/>
<rect x="341" y="65" width="17" height="35" fill="#F5D04C"/>
<rect x="341" y="123" width="17" height="35" fill="#F5D04C"/>
<rect x="341" y="181" width="17" height="35" fill="#F5D04C"/>
<rect x="341" y="239" width="17" height="35" fill="#F5D04C"/>
<rect x="341" y="297" width="17" height="35" fill="#F5D04C"/>
<rect x="245" y="355" width="17" height="35" fill="#F5D04C"/>
<rect x="293" y="355" width="17" height="35" fill="#F5D04C"/>
<rect x="245" y="413" width="17" height="35" fill="#F5D04C"/>
<rect x="293" y="413" width="17" height="35" fill="#F5D04C"/>
<rect x="341" y="355" width="17" height="35" fill="#F5D04C"/>
<rect x="341" y="413" width="17" height="35" fill="#F5D04C"/>
<rect x="245" y="471" width="17" height="35" fill="#F5D04C"/>
<rect x="293" y="471" width="17" height="35" fill="#F5D04C"/>
<rect x="245" y="529" width="17" height="35" fill="#F5D04C"/>
<rect x="293" y="529" width="17" height="35" fill="#F5D04C"/>
<rect x="341" y="471" width="17" height="35" fill="#F5D04C"/>
<rect x="341" y="529" width="17" height="35" fill="#F5D04C"/>
<rect x="245" y="587" width="17" height="35" fill="#F5D04C"/>
<rect x="293" y="587" width="17" height="35" fill="#F5D04C"/>
<rect x="245" y="645" width="17" height="35" fill="#F5D04C"/>
<rect x="293" y="645" width="17" height="35" fill="#F5D04C"/>
<rect x="341" y="587" width="17" height="35" fill="#F5D04C"/>
<rect x="341" y="645" width="17" height="35" fill="#F5D04C"/>
</g>
<rect y="300" width="150" height="500" fill="#5B5B5B"/>
<g style="mix-blend-mode:hard-light">
<rect x="26" y="311" width="17" height="35" fill="#F5D04C"/>
<rect x="74" y="311" width="17" height="35" fill="#F5D04C"/>
<rect x="26" y="369" width="17" height="35" fill="#F5D04C"/>
<rect x="74" y="369" width="17" height="35" fill="#F5D04C"/>
<rect x="26" y="427" width="17" height="35" fill="#F5D04C"/>
<rect x="74" y="427" width="17" height="35" fill="#F5D04C"/>
<rect x="26" y="485" width="17" height="35" fill="#F5D04C"/>
<rect x="74" y="485" width="17" height="35" fill="#F5D04C"/>
<rect x="26" y="543" width="17" height="35" fill="#F5D04C"/>
<rect x="74" y="543" width="17" height="35" fill="#F5D04C"/>
<rect x="122" y="311" width="17" height="35" fill="#F5D04C"/>
<rect x="122" y="369" width="17" height="35" fill="#F5D04C"/>
<rect x="122" y="427" width="17" height="35" fill="#F5D04C"/>
<rect x="122" y="485" width="17" height="35" fill="#F5D04C"/>
<rect x="122" y="543" width="17" height="35" fill="#F5D04C"/>
<rect x="26" y="601" width="17" height="35" fill="#F5D04C"/>
<rect x="74" y="601" width="17" height="35" fill="#F5D04C"/>
<rect x="122" y="601" width="17" height="35" fill="#F5D04C"/>
<rect x="26" y="659" width="17" height="35" fill="#F5D04C"/>
<rect x="74" y="659" width="17" height="35" fill="#F5D04C"/>
<rect x="122" y="659" width="17" height="35" fill="#F5D04C"/>
<rect x="26" y="717" width="17" height="35" fill="#F5D04C"/>
<rect x="74" y="717" width="17" height="35" fill="#F5D04C"/>
<rect x="122" y="717" width="17" height="35" fill="#F5D04C"/>
<rect x="26" y="775" width="17" height="35" fill="#F5D04C"/>
<rect x="74" y="775" width="17" height="35" fill="#F5D04C"/>
<rect x="122" y="775" width="17" height="35" fill="#F5D04C"/>
</g>
<rect x="235" y="667" width="125" height="133" fill="#AEAEAE"/>
<rect x="281" y="673" width="29" height="43" fill="#F5D04C"/>
<rect x="325" y="673" width="29" height="43" fill="#F5D04C"/>
<rect x="281" y="744" width="29" height="43" fill="#F5D04C"/>
<rect x="325" y="744" width="29" height="43" fill="#F5D04C"/>
<rect x="150" y="534" width="125" height="266" fill="#8E8E8E"/>
<g style="mix-blend-mode:luminosity">
<rect x="161" y="548" width="26.1538" height="31.1985" fill="#F5D04C"/>
<rect x="234.846" y="548" width="26.1538" height="31.1985" fill="#F5D04C"/>
<rect x="161" y="599.7" width="26.1538" height="31.1985" fill="#F5D04C"/>
<rect x="234.846" y="599.7" width="26.1538" height="31.1985" fill="#F5D04C"/>
<rect x="161" y="651.401" width="26.1538" height="31.1985" fill="#F5D04C"/>
<rect x="234.846" y="651.401" width="26.1538" height="31.1985" fill="#F5D04C"/>
<rect x="161" y="703.101" width="26.1538" height="31.1985" fill="#F5D04C"/>
<rect x="234.846" y="703.101" width="26.1538" height="31.1985" fill="#F5D04C"/>
<rect x="161" y="754.802" width="26.1538" height="31.1985" fill="#F5D04C"/>
<rect x="198" y="548" width="26.1538" height="31.1985" fill="#F5D04C"/>
<rect x="198" y="599.7" width="26.1538" height="31.1985" fill="#F5D04C"/>
<rect x="198" y="651.401" width="26.1538" height="31.1985" fill="#F5D04C"/>
<rect x="198" y="703.101" width="26.1538" height="31.1985" fill="#F5D04C"/>
<rect x="198" y="754.802" width="26.1538" height="31.1985" fill="#F5D04C"/>
<rect x="234.846" y="754.802" width="26.1538" height="31.1985" fill="#F5D04C"/>
</g>
</g>
<defs>
<filter id="filter0_f_1_3" x="133" y="-61" width="163" height="163" filterUnits="userSpaceOnUse" color-interpolation-filters="sRGB">
<feFlood flood-opacity="0" result="BackgroundImageFix"/>
<feBlend mode="normal" in="SourceGraphic" in2="BackgroundImageFix" result="shape"/>
<feGaussianBlur stdDeviation="2" result="effect1_foregroundBlur_1_3"/>
</filter>
<filter id="filter1_f_1_3" x="148" y="13" width="39" height="39" filterUnits="userSpaceOnUse" color-interpolation-filters="sRGB">
<feFlood flood-opacity="0" result="BackgroundImageFix"/>
<feBlend mode="normal" in="SourceGraphic" in2="BackgroundImageFix" result="shape"/>
<feGaussianBlur stdDeviation="2" result="effect1_foregroundBlur_1_3"/>
</filter>
<filter id="filter2_f_1_3" x="179" y="-23" width="39" height="39" filterUnits="userSpaceOnUse" color-interpolation-filters="sRGB">
<feFlood flood-opacity="0" result="BackgroundImageFix"/>
<feBlend mode="normal" in="SourceGraphic" in2="BackgroundImageFix" result="shape"/>
<feGaussianBlur stdDeviation="2" result="effect1_foregroundBlur_1_3"/>
</filter>
<filter id="filter3_f_1_3" x="169" y="54" width="39" height="39" filterUnits="userSpaceOnUse" color-interpolation-filters="sRGB">
<feFlood flood-opacity="0" result="BackgroundImageFix"/>
<feBlend mode="normal" in="SourceGraphic" in2="BackgroundImageFix" result="shape"/>
<feGaussianBlur stdDeviation="2" result="effect1_foregroundBlur_1_3"/>
</filter>
<filter id="filter4_f_1_3" x="200" y="28" width="39" height="39" filterUnits="userSpaceOnUse" color-interpolation-filters="sRGB">
<feFlood flood-opacity="0" result="BackgroundImageFix"/>
<feBlend mode="normal" in="SourceGraphic" in2="BackgroundImageFix" result="shape"/>
<feGaussianBlur stdDeviation="2" result="effect1_foregroundBlur_1_3"/>
</filter>
<filter id="filter5_f_1_3" x="237" y="-14" width="39" height="39" filterUnits="userSpaceOnUse" color-interpolation-filters="sRGB">
<feFlood flood-opacity="0" result="BackgroundImageFix"/>
<feBlend mode="normal" in="SourceGraphic" in2="BackgroundImageFix" result="shape"/>
<feGaussianBlur stdDeviation="2" result="effect1_foregroundBlur_1_3"/>
</filter>
<clipPath id="clip0_1_3">
<rect width="360" height="800" fill="white"/>
</clipPath>
</defs>
</svg>
