<svg width="369" height="317" viewBox="0 0 369 317" fill="none" xmlns="http://www.w3.org/2000/svg">
<rect x="102.856" y="71.4585" width="56" height="22" transform="rotate(-35.8028 102.856 71.4585)" fill="#28F2FF"/>
<rect x="139.459" y="93.144" width="56" height="22" transform="rotate(-125.803 139.459 93.144)" fill="#28F2FF"/>
<rect x="137.068" y="91.2226" width="56" height="22" transform="rotate(-0.227865 137.068 91.2226)" fill="#28F2FF"/>
<rect x="154.223" y="130.155" width="56" height="22" transform="rotate(-90.2279 154.223 130.155)" fill="#28F2FF"/>
<rect x="148.068" y="119.223" width="56" height="22" transform="rotate(-0.227865 148.068 119.223)" fill="#21BBDC"/>
<rect x="165.223" y="158.155" width="56" height="22" transform="rotate(-90.2279 165.223 158.155)" fill="#21BBDC"/>
<rect x="137.068" y="153.223" width="56" height="22" transform="rotate(-0.227865 137.068 153.223)" fill="#28F2FF"/>
<rect x="154.223" y="192.155" width="56" height="22" transform="rotate(-90.2279 154.223 192.155)" fill="#28F2FF"/>
<rect x="170.822" y="185.419" width="56" height="22" transform="rotate(32.2093 170.822 185.419)" fill="#28F2FF"/>
<rect x="164.419" y="227.478" width="56" height="22" transform="rotate(-57.7907 164.419 227.478)" fill="#28F2FF"/>
<rect x="213" y="215.357" width="41" height="17.2857" fill="#28F2FF"/>
<rect x="225.446" y="246" width="44" height="16.1071" transform="rotate(-90 225.446 246)" fill="#28F2FF"/>
<rect x="255" y="219.357" width="41" height="17.2857" fill="#28F2FF"/>
<rect x="267.446" y="250" width="44" height="16.1071" transform="rotate(-90 267.446 250)" fill="#28F2FF"/>
<rect x="300" y="217.357" width="41" height="17.2857" fill="#28F2FF"/>
<rect x="312.446" y="248" width="44" height="16.1071" transform="rotate(-90 312.446 248)" fill="#28F2FF"/>
<rect x="71.6528" y="82" width="25.5401" height="62" transform="rotate(58.1289 71.6528 82)" fill="#757575"/>
<rect x="50" y="243" width="41" height="62" fill="#757575"/>
<rect x="50" y="70" width="118" height="204" fill="#8C8C8C"/>
<rect x="109" y="255" width="41" height="62" fill="#757575"/>
<rect x="96.6528" y="112" width="41" height="62" transform="rotate(58.1289 96.6528 112)" fill="#757575"/>
<rect x="77.6528" y="133" width="25.5401" height="62" transform="rotate(58.1289 77.6528 133)" fill="#757575"/>
<rect x="20" width="109" height="77" fill="#757575"/>
<rect x="168" y="274" width="75" height="50" transform="rotate(-90 168 274)" fill="#8C8C8C"/>
<rect x="218" y="274" width="53" height="50" transform="rotate(-90 218 274)" fill="#8C8C8C"/>
<rect x="268" y="224" width="55" height="50" fill="#8C8C8C"/>
<rect x="296" y="221" width="53" height="53" fill="#8C8C8C"/>
<rect x="333" y="206" width="36" height="59" fill="#8C8C8C"/>
<rect x="341" y="147" width="28" height="59" fill="#8C8C8C"/>
<rect x="20" y="40" width="44" height="22" fill="#58E1FF"/>
<rect x="91" y="11" width="27" height="22" fill="#28F2FF"/>
<path d="M26 53L31.1962 62.75H20.8038L26 53Z" fill="#D9D9D9"/>
<path d="M38 53L43.1962 62.75H32.8038L38 53Z" fill="#D9D9D9"/>
<path d="M50 53L55.1962 62.75H44.8038L50 53Z" fill="#D9D9D9"/>
<path d="M32 49L26.8038 39.25H37.1962L32 49Z" fill="#D9D9D9"/>
<path d="M44 49L38.8038 39.25H49.1962L44 49Z" fill="#D9D9D9"/>
<path d="M58 49L52.8038 39.25H63.1962L58 49Z" fill="#D9D9D9"/>
<path d="M20 49L14.8038 39.25H25.1962L20 49Z" fill="#D9D9D9"/>
<rect x="32.7073" y="181" width="5.3733" height="25.8729" transform="rotate(46.3064 32.7073 181)" fill="#F7F7F7"/>
<rect x="28.0901" y="174" width="6.59017" height="25.8729" transform="rotate(54.6015 28.0901 174)" fill="#F7F7F7"/>
<rect x="25.0139" y="167" width="6.89993" height="25.8729" transform="rotate(62.8102 25.0139 167)" fill="#F7F7F7"/>
<rect x="10.9414" y="175.033" width="17.3725" height="25.8729" transform="rotate(-33.59 10.9414 175.033)" fill="#4B4747"/>
<rect x="30.7073" y="127.578" width="5.3733" height="25.8729" transform="rotate(46.3064 30.7073 127.578)" fill="#F7F7F7"/>
<rect x="26.0901" y="120.578" width="6.59017" height="25.8729" transform="rotate(54.6015 26.0901 120.578)" fill="#F7F7F7"/>
<rect x="23.0139" y="113.578" width="6.89993" height="25.8729" transform="rotate(62.8102 23.0139 113.578)" fill="#F7F7F7"/>
<rect x="8.94144" y="121.611" width="17.3725" height="25.8729" transform="rotate(-33.59 8.94144 121.611)" fill="#4B4747"/>
</svg>
